<?xml version="1.0" encoding="UTF-8"?>
<!DOCTYPE svg PUBLIC "-//W3C//DTD SVG 1.1//EN" "http://www.w3.org/Graphics/SVG/1.1/DTD/svg11.dtd">
<svg xmlns="http://www.w3.org/2000/svg" version="1.1" width="130px" height="55px" style="shape-rendering:geometricPrecision; text-rendering:geometricPrecision; image-rendering:optimizeQuality; fill-rule:evenodd; clip-rule:evenodd" xmlns:xlink="http://www.w3.org/1999/xlink">
<g><path style="opacity:1" fill="#fdfdfd" d="M -0.5,-0.5 C 42.8333,-0.5 86.1667,-0.5 129.5,-0.5C 129.5,17.8333 129.5,36.1667 129.5,54.5C 86.1667,54.5 42.8333,54.5 -0.5,54.5C -0.5,36.1667 -0.5,17.8333 -0.5,-0.5 Z"/></g>
<g><path style="opacity:1" fill="#adadad" d="M 63.5,7.5 C 67.6344,6.51511 71.9677,6.18178 76.5,6.5C 76.6602,8.19919 76.4935,9.86586 76,11.5C 75.4115,9.13673 73.9115,8.13673 71.5,8.5C 70.5,7.16667 69.5,7.16667 68.5,8.5C 67.8333,8.5 67.1667,8.5 66.5,8.5C 65.791,7.59603 64.791,7.26269 63.5,7.5 Z"/></g>
<g><path style="opacity:1" fill="#7f7f7f" d="M 55.5,10.5 C 54.6618,10.1583 54.3284,9.49162 54.5,8.5C 56.0654,6.28121 58.0654,5.94788 60.5,7.5C 61.6139,8.72296 61.7805,10.0563 61,11.5C 60,9.83333 58.6667,8.5 57,7.5C 55.9614,8.24382 55.4614,9.24382 55.5,10.5 Z"/></g>
<g><path style="opacity:1" fill="#303030" d="M 63.5,7.5 C 64.791,7.26269 65.791,7.59603 66.5,8.5C 65.5416,8.9528 64.7083,9.61947 64,10.5C 63.5172,9.55198 63.3505,8.55198 63.5,7.5 Z"/></g>
<g><path style="opacity:1" fill="#333333" d="M 54.5,8.5 C 54.3284,9.49162 54.6618,10.1583 55.5,10.5C 56.976,12.5 58.8094,14.1666 61,15.5C 61.4859,20.9919 58.9859,22.8253 53.5,21C 52.4829,19.9505 52.3162,18.7839 53,17.5C 54.1861,19.6766 56.0194,20.6766 58.5,20.5C 58.498,16.6512 56.6647,13.9845 53,12.5C 52.2274,10.6476 52.7274,9.31431 54.5,8.5 Z"/></g>
<g><path style="opacity:1" fill="#1f1f1f" d="M 71.5,8.5 C 71.5,12.5 71.5,16.5 71.5,20.5C 70.5,21.8333 69.5,21.8333 68.5,20.5C 68.5,16.5 68.5,12.5 68.5,8.5C 69.5,7.16667 70.5,7.16667 71.5,8.5 Z"/></g>
<g><path style="opacity:1" fill="#747372" d="M 5.5,14.5 C 18.85,14.1675 32.1833,14.5008 45.5,15.5C 38.8333,15.8333 32.1667,16.1667 25.5,16.5C 18.4649,16.4968 11.7983,15.8301 5.5,14.5 Z"/></g>
<g><path style="opacity:1" fill="#747271" d="M 82.5,14.5 C 95.85,14.1675 109.183,14.5008 122.5,15.5C 115.833,15.8333 109.167,16.1667 102.5,16.5C 95.4649,16.4968 88.7983,15.8301 82.5,14.5 Z"/></g>
<g><path style="opacity:1" fill="#9d9c9c" d="M 36.5,22.5 C 34.5853,22.2155 32.9187,22.5489 31.5,23.5C 30.5,23.5 29.5,23.5 28.5,23.5C 26.5,22.1667 24.5,22.1667 22.5,23.5C 21.5266,23.0133 20.5266,22.5133 19.5,22C 25.3487,21.1816 31.0154,21.3483 36.5,22.5 Z"/></g>
<g><path style="opacity:1" fill="#b7b6b6" d="M 68.5,20.5 C 69.5,21.8333 70.5,21.8333 71.5,20.5C 72.2389,20.369 72.9056,20.5357 73.5,21C 72.3066,22.0946 70.9733,22.928 69.5,23.5C 67.8333,22.1667 66.1667,22.1667 64.5,23.5C 63.5266,23.0133 62.5266,22.5133 61.5,22C 63.8659,21.5604 66.1992,21.0604 68.5,20.5 Z"/></g>
<g><path style="opacity:1" fill="#444241" d="M 28.5,23.5 C 26.5977,26.3373 25.931,29.6707 26.5,33.5C 29.9705,34.1252 32.8038,33.1252 35,30.5C 35.6667,32.8333 35.6667,35.1667 35,37.5C 32.8055,34.9629 29.9721,33.9629 26.5,34.5C 26.335,37.8499 26.5017,41.1832 27,44.5C 31.1507,46.3602 34.484,45.3602 37,41.5C 37.4935,43.1341 37.6602,44.8008 37.5,46.5C 30.4229,46.888 25.4229,46.5547 22.5,45.5C 22.5,38.1667 22.5,30.8333 22.5,23.5C 24.5,22.1667 26.5,22.1667 28.5,23.5 Z"/></g>
<g><path style="opacity:1" fill="#484645" d="M 31.5,23.5 C 32.9187,22.5489 34.5853,22.2155 36.5,22.5C 36.6567,23.8734 36.49,25.2068 36,26.5C 34.871,24.8588 33.371,23.8588 31.5,23.5 Z"/></g>
<g><path style="opacity:1" fill="#3e3c3b" d="M 43.5,22.5 C 45.1992,22.3398 46.8659,22.5065 48.5,23C 47.3544,30.0862 47.1877,37.2529 48,44.5C 52.3687,46.2679 56.0354,45.2679 59,41.5C 59.4935,43.1341 59.6602,44.8008 59.5,46.5C 53.8236,46.6661 48.1569,46.4994 42.5,46C 43.4817,38.253 43.815,30.4197 43.5,22.5 Z"/></g>
<g><path style="opacity:1" fill="#4d4b4a" d="M 69.5,23.5 C 69.5,30.8333 69.5,38.1667 69.5,45.5C 73.3375,45.9784 76.6709,44.9784 79.5,42.5C 80.4345,43.5676 80.7678,44.901 80.5,46.5C 74.8236,46.6661 69.1569,46.4994 63.5,46C 64.4808,38.5871 64.8142,31.0871 64.5,23.5C 66.1667,22.1667 67.8333,22.1667 69.5,23.5 Z"/></g>
<g><path style="opacity:1" fill="#4b4948" d="M 95.5,21.5 C 100.266,29.5226 104.933,37.6893 109.5,46C 106.5,46.6667 103.5,46.6667 100.5,46C 101.428,45.6121 102.095,44.9454 102.5,44C 101.974,39.0608 99.3071,36.8942 94.5,37.5C 89.5906,37.3309 87.4239,39.6643 88,44.5C 89.0674,45.1905 90.2341,45.6905 91.5,46C 88.5,46.6667 85.5,46.6667 82.5,46C 85.8435,42.8386 88.3435,39.0052 90,34.5C 99.0241,38.0422 100.524,36.0422 94.5,28.5C 93.4164,29.6651 92.5831,30.9984 92,32.5C 91.8333,32 91.6667,31.5 91.5,31C 92.9837,27.8695 94.3171,24.7029 95.5,21.5 Z"/></g>
<g><path style="opacity:1" fill="#908f8e" d="M 80.5,46.5 C 80.7678,44.901 80.4345,43.5676 79.5,42.5C 79.9867,41.5266 80.4867,40.5266 81,39.5C 81.7958,42.0385 81.6291,44.3718 80.5,46.5 Z"/></g>
</svg>
